# xmcd
#
# Track frame offsets:
#	150
#	6991
#	24598
#	40504
#	61627
#	76256
#	95942
#	119853
#	143754
#
# Disc length: 2227 seconds
#
# Revision: 1
# Processed by: cddbd v1.5.2PL0 Copyright (c) Steve Scherf et al.
# Submitted via: audiograbber 1.83.01
#
DISCID=7108b109
DTITLE=HOS - Deathtiny
DYEAR=2008
DGENRE=Death Metal
TTITLE0=Deathtiny
TTITLE1=Bedtime
TTITLE2=For you
TTITLE3=Awake
TTITLE4=Cursed
TTITLE5=Signs
TTITLE6=Final Love Song
TTITLE7=Suicide
TTITLE8=Awake (acoustic)
EXTD=
EXTT0=
EXTT1=
EXTT2=
EXTT3=
EXTT4=
EXTT5=
EXTT6=
EXTT7=
EXTT8=
PLAYORDER=
